<?xml version="1.0" encoding="UTF-8" standalone="no"?>
<!DOCTYPE svg PUBLIC "-//W3C//DTD SVG 1.0//EN"
 "http://www.w3.org/TR/2001/REC-SVG-20010904/DTD/svg10.dtd" [
 <!ATTLIST svg xmlns:xlink CDATA #FIXED "http://www.w3.org/1999/xlink">
]>
<!-- Generated by libgvc version 2.20.2 (Tue Jul 29 16:40:41 UTC 2008)
     For user: (harold) Harold Cooper -->
<!-- Title: _anonymous_2 Pages: 1 -->
<svg width="770pt" height="356pt"
 viewBox="0.00 0.00 770.00 356.00" xmlns="http://www.w3.org/2000/svg" xmlns:xlink="http://www.w3.org/1999/xlink">
<g id="graph0" class="graph" transform="scale(1 1) rotate(0) translate(4 352)">
<title>_anonymous_2</title>
<polygon style="fill:white;stroke:white;" points="-4,4 -4,-352 766,-352 766,4 -4,4"/>
<!-- abstract -->
<g id="node1" class="node"><title>abstract</title>
<ellipse style="fill:none;stroke:black;stroke-dasharray:5,2;" cx="41" cy="-240" rx="41.1906" ry="18"/>
<text text-anchor="middle" x="41" y="-235.9" style="font-family:Times New Roman;font-size:14.00;">abstract</text>
</g>
<!-- concrete -->
<g id="node2" class="node"><title>concrete</title>
<ellipse style="fill:none;stroke:black;" cx="55" cy="-330" rx="46.0565" ry="18"/>
<text text-anchor="middle" x="55" y="-325.9" style="font-family:Times New Roman;font-size:14.00;">concrete</text>
</g>
<!-- concrete&#45;&gt;abstract -->
<g id="edge2" class="edge"><title>concrete&#45;&gt;abstract</title>
<path style="fill:none;stroke:black;" d="M34,-314C28,-308 22,-301 19,-294 15,-285 18,-275 22,-266"/>
<polygon style="fill:black;stroke:black;" points="25.2031,-267.441 27,-257 19.084,-264.042 25.2031,-267.441"/>
<text text-anchor="middle" x="51" y="-280.9" style="font-family:Times New Roman;font-size:14.00;">backedBy</text>
</g>
<!-- concrete&#45;&gt;abstract -->
<g id="edge4" class="edge"><title>concrete&#45;&gt;abstract</title>
<path style="fill:none;stroke:black;stroke-dasharray:5,2;" d="M69,-313C76,-302 82,-288 77,-276 75,-271 73,-267 69,-263"/>
<polygon style="fill:black;stroke:black;" points="71.546,-260.596 62,-256 66.5962,-265.546 71.546,-260.596"/>
<text text-anchor="middle" x="91" y="-280.9" style="font-family:Times New Roman;font-size:14.00;">isA</text>
</g>
<!-- PMap -->
<g id="node5" class="node"><title>PMap</title>
<ellipse style="fill:none;stroke:black;stroke-dasharray:5,2;" cx="223" cy="-92" rx="34.0492" ry="18"/>
<text text-anchor="middle" x="223" y="-87.9" style="font-family:Times New Roman;font-size:14.00;">PMap</text>
</g>
<!-- PCollection -->
<g id="node6" class="node"><title>PCollection</title>
<ellipse style="fill:none;stroke:black;stroke-dasharray:5,2;" cx="491" cy="-18" rx="57.8712" ry="18"/>
<text text-anchor="middle" x="491" y="-13.9" style="font-family:Times New Roman;font-size:14.00;">PCollection</text>
</g>
<!-- PSequence -->
<g id="node7" class="node"><title>PSequence</title>
<ellipse style="fill:none;stroke:black;stroke-dasharray:5,2;" cx="603" cy="-92" rx="55.0898" ry="18"/>
<text text-anchor="middle" x="603" y="-87.9" style="font-family:Times New Roman;font-size:14.00;">PSequence</text>
</g>
<!-- PSequence&#45;&gt;PCollection -->
<g id="edge6" class="edge"><title>PSequence&#45;&gt;PCollection</title>
<path style="fill:none;stroke:black;stroke-dasharray:5,2;" d="M578,-76C562,-66 541,-52 524,-40"/>
<polygon style="fill:black;stroke:black;" points="526.1,-37.2 516,-34 521.9,-42.8 526.1,-37.2"/>
</g>
<!-- PSet -->
<g id="node8" class="node"><title>PSet</title>
<ellipse style="fill:none;stroke:black;stroke-dasharray:5,2;" cx="133" cy="-92" rx="29.1851" ry="18"/>
<text text-anchor="middle" x="133" y="-87.9" style="font-family:Times New Roman;font-size:14.00;">PSet</text>
</g>
<!-- PSet&#45;&gt;PCollection -->
<g id="edge8" class="edge"><title>PSet&#45;&gt;PCollection</title>
<path style="fill:none;stroke:black;stroke-dasharray:5,2;" d="M157,-82C165,-79 173,-76 180,-74 264,-50 363,-35 427,-26"/>
<polygon style="fill:black;stroke:black;" points="427.398,-29.4778 437,-25 426.701,-22.5125 427.398,-29.4778"/>
</g>
<!-- PBag -->
<g id="node9" class="node"><title>PBag</title>
<ellipse style="fill:none;stroke:black;stroke-dasharray:5,2;" cx="491" cy="-92" rx="31.9646" ry="18"/>
<text text-anchor="middle" x="491" y="-87.9" style="font-family:Times New Roman;font-size:14.00;">PBag</text>
</g>
<!-- PBag&#45;&gt;PCollection -->
<g id="edge10" class="edge"><title>PBag&#45;&gt;PCollection</title>
<path style="fill:none;stroke:black;stroke-dasharray:5,2;" d="M491,-74C491,-65 491,-56 491,-46"/>
<polygon style="fill:black;stroke:black;" points="494.5,-46 491,-36 487.5,-46 494.5,-46"/>
</g>
<!-- PStack -->
<g id="node10" class="node"><title>PStack</title>
<ellipse style="fill:none;stroke:black;stroke-dasharray:5,2;" cx="703" cy="-166" rx="38.2185" ry="18"/>
<text text-anchor="middle" x="703" y="-161.9" style="font-family:Times New Roman;font-size:14.00;">PStack</text>
</g>
<!-- PStack&#45;&gt;PSequence -->
<g id="edge12" class="edge"><title>PStack&#45;&gt;PSequence</title>
<path style="fill:none;stroke:black;stroke-dasharray:5,2;" d="M682,-151C669,-141 649,-126 633,-115"/>
<polygon style="fill:black;stroke:black;" points="635.1,-112.2 625,-109 630.9,-117.8 635.1,-112.2"/>
</g>
<!-- PVector -->
<g id="node11" class="node"><title>PVector</title>
<ellipse style="fill:none;stroke:black;stroke-dasharray:5,2;" cx="603" cy="-166" rx="43.7776" ry="18"/>
<text text-anchor="middle" x="603" y="-161.9" style="font-family:Times New Roman;font-size:14.00;">PVector</text>
</g>
<!-- PVector&#45;&gt;PSequence -->
<g id="edge14" class="edge"><title>PVector&#45;&gt;PSequence</title>
<path style="fill:none;stroke:black;stroke-dasharray:5,2;" d="M603,-148C603,-139 603,-130 603,-120"/>
<polygon style="fill:black;stroke:black;" points="606.5,-120 603,-110 599.5,-120 606.5,-120"/>
</g>
<!-- HashPMap -->
<g id="node12" class="node"><title>HashPMap</title>
<ellipse style="fill:none;stroke:black;stroke-dasharray:5,2;" cx="223" cy="-166" rx="54.2008" ry="18"/>
<text text-anchor="middle" x="223" y="-161.9" style="font-family:Times New Roman;font-size:14.00;">HashPMap</text>
</g>
<!-- HashPMap&#45;&gt;PMap -->
<g id="edge16" class="edge"><title>HashPMap&#45;&gt;PMap</title>
<path style="fill:none;stroke:black;stroke-dasharray:5,2;" d="M217,-148C216,-139 216,-129 216,-120"/>
<polygon style="fill:black;stroke:black;" points="219.488,-120.299 217,-110 212.522,-119.602 219.488,-120.299"/>
</g>
<!-- HashPMap&#45;&gt;PMap -->
<g id="edge34" class="edge"><title>HashPMap&#45;&gt;PMap</title>
<path style="fill:none;stroke:black;" d="M229,-148C230,-139 230,-129 230,-120"/>
<polygon style="fill:black;stroke:black;" points="233.478,-119.602 229,-110 226.512,-120.299 233.478,-119.602"/>
</g>
<!-- MapPSet -->
<g id="node13" class="node"><title>MapPSet</title>
<ellipse style="fill:none;stroke:black;stroke-dasharray:5,2;" cx="105" cy="-166" rx="46.0565" ry="18"/>
<text text-anchor="middle" x="105" y="-161.9" style="font-family:Times New Roman;font-size:14.00;">MapPSet</text>
</g>
<!-- MapPSet&#45;&gt;PMap -->
<g id="edge36" class="edge"><title>MapPSet&#45;&gt;PMap</title>
<path style="fill:none;stroke:black;" d="M129,-151C147,-140 173,-124 192,-111"/>
<polygon style="fill:black;stroke:black;" points="193.958,-113.916 201,-106 190.559,-107.797 193.958,-113.916"/>
</g>
<!-- MapPSet&#45;&gt;PSet -->
<g id="edge18" class="edge"><title>MapPSet&#45;&gt;PSet</title>
<path style="fill:none;stroke:black;stroke-dasharray:5,2;" d="M112,-148C115,-139 119,-129 122,-119"/>
<polygon style="fill:black;stroke:black;" points="125.137,-120.56 126,-110 118.74,-117.717 125.137,-120.56"/>
</g>
<!-- MapPBag -->
<g id="node14" class="node"><title>MapPBag</title>
<ellipse style="fill:none;stroke:black;stroke-dasharray:5,2;" cx="491" cy="-166" rx="50.0315" ry="18"/>
<text text-anchor="middle" x="491" y="-161.9" style="font-family:Times New Roman;font-size:14.00;">MapPBag</text>
</g>
<!-- MapPBag&#45;&gt;PMap -->
<g id="edge38" class="edge"><title>MapPBag&#45;&gt;PMap</title>
<path style="fill:none;stroke:black;" d="M454,-154C446,-152 439,-150 432,-148 374,-131 306,-113 264,-102"/>
<polygon style="fill:black;stroke:black;" points="264.492,-98.5292 254,-100 263.119,-105.393 264.492,-98.5292"/>
</g>
<!-- MapPBag&#45;&gt;PBag -->
<g id="edge20" class="edge"><title>MapPBag&#45;&gt;PBag</title>
<path style="fill:none;stroke:black;stroke-dasharray:5,2;" d="M491,-148C491,-139 491,-130 491,-120"/>
<polygon style="fill:black;stroke:black;" points="494.5,-120 491,-110 487.5,-120 494.5,-120"/>
</g>
<!-- ConsPStack -->
<g id="node23" class="node"><title>ConsPStack</title>
<ellipse style="fill:none;stroke:black;" cx="703" cy="-240" rx="59.065" ry="18"/>
<text text-anchor="middle" x="703" y="-235.9" style="font-family:Times New Roman;font-size:14.00;">ConsPStack</text>
</g>
<!-- ConsPStack&#45;&gt;PStack -->
<g id="edge22" class="edge"><title>ConsPStack&#45;&gt;PStack</title>
<path style="fill:none;stroke:black;stroke-dasharray:5,2;" d="M703,-222C703,-213 703,-204 703,-194"/>
<polygon style="fill:black;stroke:black;" points="706.5,-194 703,-184 699.5,-194 706.5,-194"/>
</g>
<!-- IntTreePMap -->
<g id="node25" class="node"><title>IntTreePMap</title>
<ellipse style="fill:none;stroke:black;" cx="359" cy="-166" rx="63.9292" ry="18"/>
<text text-anchor="middle" x="359" y="-161.9" style="font-family:Times New Roman;font-size:14.00;">IntTreePMap</text>
</g>
<!-- IntTreePMap&#45;&gt;PMap -->
<g id="edge24" class="edge"><title>IntTreePMap&#45;&gt;PMap</title>
<path style="fill:none;stroke:black;stroke-dasharray:5,2;" d="M329,-150C307,-138 278,-122 256,-110"/>
<polygon style="fill:black;stroke:black;" points="257.441,-106.797 247,-105 254.042,-112.916 257.441,-106.797"/>
</g>
<!-- TreePVector -->
<g id="node27" class="node"><title>TreePVector</title>
<ellipse style="fill:none;stroke:black;" cx="542" cy="-240" rx="62.0391" ry="18"/>
<text text-anchor="middle" x="542" y="-235.9" style="font-family:Times New Roman;font-size:14.00;">TreePVector</text>
</g>
<!-- TreePVector&#45;&gt;PVector -->
<g id="edge26" class="edge"><title>TreePVector&#45;&gt;PVector</title>
<path style="fill:none;stroke:black;stroke-dasharray:5,2;" d="M556,-222C564,-213 574,-201 583,-191"/>
<polygon style="fill:black;stroke:black;" points="585.8,-193.1 589,-183 580.2,-188.9 585.8,-193.1"/>
</g>
<!-- TreePVector&#45;&gt;IntTreePMap -->
<g id="edge40" class="edge"><title>TreePVector&#45;&gt;IntTreePMap</title>
<path style="fill:none;stroke:black;" d="M505,-225C476,-213 436,-197 405,-185"/>
<polygon style="fill:black;stroke:black;" points="406.56,-181.863 396,-181 403.717,-188.26 406.56,-181.863"/>
</g>
<!-- HashTreePMap -->
<g id="node29" class="node"><title>HashTreePMap</title>
<ellipse style="fill:none;stroke:black;" cx="250" cy="-240" rx="72.9626" ry="18"/>
<text text-anchor="middle" x="250" y="-235.9" style="font-family:Times New Roman;font-size:14.00;">HashTreePMap</text>
</g>
<!-- HashTreePMap&#45;&gt;HashPMap -->
<g id="edge28" class="edge"><title>HashTreePMap&#45;&gt;HashPMap</title>
<path style="fill:none;stroke:black;stroke-dasharray:5,2;" d="M243,-222C240,-213 236,-203 233,-193"/>
<polygon style="fill:black;stroke:black;" points="236.26,-191.717 229,-184 229.863,-194.56 236.26,-191.717"/>
</g>
<!-- HashTreePMap&#45;&gt;IntTreePMap -->
<g id="edge42" class="edge"><title>HashTreePMap&#45;&gt;IntTreePMap</title>
<path style="fill:none;stroke:black;" d="M275,-223C290,-213 309,-200 326,-189"/>
<polygon style="fill:black;stroke:black;" points="328.1,-191.8 334,-183 323.9,-186.2 328.1,-191.8"/>
</g>
<!-- HashTreePSet -->
<g id="node31" class="node"><title>HashTreePSet</title>
<ellipse style="fill:none;stroke:black;" cx="204" cy="-330" rx="66.9043" ry="18"/>
<text text-anchor="middle" x="204" y="-325.9" style="font-family:Times New Roman;font-size:14.00;">HashTreePSet</text>
</g>
<!-- HashTreePSet&#45;&gt;MapPSet -->
<g id="edge30" class="edge"><title>HashTreePSet&#45;&gt;MapPSet</title>
<path style="fill:none;stroke:black;stroke-dasharray:5,2;" d="M193,-312C176,-284 142,-227 121,-193"/>
<polygon style="fill:black;stroke:black;" points="123.916,-191.042 116,-184 117.797,-194.441 123.916,-191.042"/>
</g>
<!-- HashTreePSet&#45;&gt;HashTreePMap -->
<g id="edge44" class="edge"><title>HashTreePSet&#45;&gt;HashTreePMap</title>
<path style="fill:none;stroke:black;" d="M213,-312C220,-299 229,-282 236,-267"/>
<polygon style="fill:black;stroke:black;" points="239.203,-268.441 241,-258 233.084,-265.042 239.203,-268.441"/>
</g>
<!-- HashTreePBag -->
<g id="node33" class="node"><title>HashTreePBag</title>
<ellipse style="fill:none;stroke:black;" cx="397" cy="-330" rx="70.878" ry="18"/>
<text text-anchor="middle" x="397" y="-325.9" style="font-family:Times New Roman;font-size:14.00;">HashTreePBag</text>
</g>
<!-- HashTreePBag&#45;&gt;MapPBag -->
<g id="edge32" class="edge"><title>HashTreePBag&#45;&gt;MapPBag</title>
<path style="fill:none;stroke:black;stroke-dasharray:5,2;" d="M407,-312C424,-284 457,-227 476,-193"/>
<polygon style="fill:black;stroke:black;" points="479.203,-194.441 481,-184 473.084,-191.042 479.203,-194.441"/>
</g>
<!-- HashTreePBag&#45;&gt;HashTreePMap -->
<g id="edge46" class="edge"><title>HashTreePBag&#45;&gt;HashTreePMap</title>
<path style="fill:none;stroke:black;" d="M370,-313C346,-299 312,-278 287,-262"/>
<polygon style="fill:black;stroke:black;" points="288.441,-258.797 278,-257 285.042,-264.916 288.441,-258.797"/>
</g>
</g>
</svg>
